<svg width="40" height="30" viewBox="0 0 40 30" fill="none" xmlns="http://www.w3.org/2000/svg">
<path d="M39.6 27.5V15C39.6 13.62 38.4912 12.5 37.125 12.5H32.175C30.8088 12.5 29.7 13.62 29.7 15V27.5C29.7 28.88 30.8088 30 32.175 30H37.125C38.4912 30 39.6 28.88 39.6 27.5ZM22.275 30C23.6412 30 24.75 28.88 24.75 27.5V2.5C24.75 1.12 23.6412 0 22.275 0H17.325C15.9605 0 14.85 1.12 14.85 2.5V27.5C14.85 28.88 15.9605 30 17.325 30H22.275ZM0 27.5C0 28.88 1.11045 30 2.475 30H7.425C8.7912 30 9.9 28.88 9.9 27.5V10C9.9 8.62 8.7912 7.5 7.425 7.5H2.475C1.11045 7.5 0 8.62 0 10V27.5Z" fill="#7B2BBE"/>
</svg>
