<svg width="31" height="30" viewBox="0 0 31 30" fill="none" xmlns="http://www.w3.org/2000/svg">
<path d="M15.3794 0C11.7276 0.000151434 8.19489 1.29973 5.41353 3.66621C2.63217 6.03269 0.783623 9.31163 0.198641 12.9163C-0.386341 16.5211 0.330418 20.2163 2.22067 23.3409C4.11092 26.4655 7.05131 28.8156 10.5157 29.9706C11.2847 30.1052 11.5731 29.6438 11.5731 29.24C11.5731 28.8748 11.5538 27.6637 11.5538 26.3756C7.68973 27.0869 6.69007 25.4337 6.38249 24.5686C6.04118 23.7272 5.50013 22.9816 4.8061 22.3962C4.26782 22.1079 3.49885 21.3966 4.78686 21.3774C5.27867 21.4307 5.75037 21.6019 6.16199 21.8763C6.57361 22.1507 6.91302 22.5203 7.15145 22.9537C7.3618 23.3316 7.64464 23.6642 7.98377 23.9326C8.3229 24.201 8.71165 24.3998 9.12776 24.5177C9.54386 24.6355 9.97913 24.6701 10.4086 24.6195C10.8381 24.5688 11.2534 24.4339 11.6307 24.2225C11.6972 23.4407 12.0457 22.7096 12.6111 22.1656C9.18922 21.7811 5.61352 20.4546 5.61352 14.572C5.59191 13.0435 6.15592 11.5647 7.1899 10.4388C6.71973 9.11036 6.77474 7.6525 7.3437 6.36327C7.3437 6.36327 8.63167 5.95954 11.573 7.93965C14.0895 7.24754 16.7462 7.24754 19.2627 7.93965C22.204 5.94033 23.492 6.36327 23.492 6.36327C24.0611 7.65248 24.1161 9.11037 23.6458 10.4388C24.6829 11.5628 25.2474 13.0429 25.2222 14.572C25.2222 20.4738 21.6273 21.7811 18.2054 22.1656C18.5724 22.5376 18.8551 22.9842 19.0342 23.4751C19.2133 23.9661 19.2847 24.4898 19.2435 25.0108C19.2435 27.0678 19.2243 28.721 19.2243 29.2401C19.2243 29.6438 19.5126 30.1244 20.2816 29.9706C23.7399 28.8062 26.6718 26.4506 28.554 23.3244C30.4362 20.1983 31.1462 16.5049 30.5571 12.9037C29.9681 9.30244 28.1184 6.02775 25.3383 3.66416C22.5582 1.30056 19.0285 0.00189921 15.3794 0Z" fill="#7B2BBE"/>
</svg>
