<svg width="40" height="30" viewBox="0 0 40 30" fill="none" xmlns="http://www.w3.org/2000/svg">
<path d="M35.8875 0H34.65L19.8 11.845L4.95 0H3.7125C2.72788 0 1.78359 0.395088 1.08737 1.09835C0.391137 1.80161 0 2.75544 0 3.75L0 26.25C0 27.2446 0.391137 28.1984 1.08737 28.9017C1.78359 29.6049 2.72788 30 3.7125 30H4.95V6.615L19.8 18.1525L34.65 6.6125V30H35.8875C36.8721 30 37.8164 29.6049 38.5126 28.9017C39.2089 28.1984 39.6 27.2446 39.6 26.25V3.75C39.6 2.75544 39.2089 1.80161 38.5126 1.09835C37.8164 0.395088 36.8721 0 35.8875 0Z" fill="#7B2BBE"/>
</svg>
