<svg width="24" height="30" viewBox="0 0 24 30" fill="none" xmlns="http://www.w3.org/2000/svg">
<path d="M24.0016 17.9432C24.0016 17.0157 23.3247 16.2606 22.4895 16.2606H10.412C9.57674 16.2606 8.8999 17.0157 8.8999 17.9432C8.8999 18.8708 9.57554 19.6258 10.412 19.6258H22.4895C23.3247 19.6271 24.0016 18.872 24.0016 17.9432Z" fill="#7B2BBE"/>
<path d="M1.7785 22.7333L6.95439 28.1849C8.12206 29.4087 9.73615 30 11.5182 30C13.3003 30 14.9144 29.36 16.0845 28.1324L19.1903 24.836C19.8023 24.1934 19.7807 23.1296 19.1435 22.4608C18.5062 21.792 17.4934 21.7695 16.8826 22.4121L13.6712 25.671C13.1167 26.2548 12.3487 26.4986 11.5002 26.4986C10.6518 26.4986 9.88496 26.2548 9.32813 25.671L4.17024 20.2169C3.6146 19.6332 3.33499 18.7794 3.33499 17.8881C3.33499 16.9968 3.6146 16.1917 4.17024 15.6079L9.31252 10.1326C9.86816 9.54885 10.6518 9.32633 11.499 9.32633C12.3463 9.32633 13.1143 9.5701 13.67 10.1539L16.8814 13.4116C17.4934 14.0554 18.5062 14.0329 19.1435 13.3641C19.7807 12.694 19.8023 11.6302 19.1903 10.9877L16.0845 7.69249C15.3057 6.88495 14.3192 6.29741 13.2139 6.0299L13.1731 6.02115L16.1097 2.89222C16.7241 2.24968 16.7025 1.18462 16.0653 0.515836C15.4281 -0.152952 14.414 -0.174203 13.8008 0.468333L1.7785 13.094C0.610835 14.3216 0 16.0155 0 17.8881C0 19.7607 0.610835 21.5083 1.7785 22.7333Z" fill="#7B2BBE"/>
</svg>
