<svg width="1082" height="843" viewBox="0 0 1082 843" fill="none" xmlns="http://www.w3.org/2000/svg">
<path d="M215.445 843.036C210.486 835.732 211.524 833.583 220.314 832.903C226.275 832.438 226.955 831.22 224.359 825.617C223.267 823.254 221.853 820.533 224.073 818.42C226.006 816.594 228.834 817.525 230.857 818.742C234.437 820.873 236.639 822.394 238.68 816.54C239.861 813.157 244.713 811.599 249.134 812.835C250.369 813.175 251.604 813.533 252.857 813.712C253.788 813.837 255.274 813.354 255.059 812.566C254.057 808.986 250.047 807.786 248.364 804.438C247.541 802.791 246.001 804.761 245.035 805.871C242.6 808.699 240.381 812.101 236.407 807.303C235.279 805.96 232.612 806.211 231.215 807.5C227.886 810.615 223.16 810.149 219.58 812.494C218.327 813.318 216.501 813.443 216.268 812.083C215.606 808.001 213.798 803.49 216.715 799.855C219.598 796.275 222.712 793.178 223.679 788.326C224.377 784.853 227.474 783.35 231 783.833C236.747 784.621 240.971 783.35 243.37 777.317C244.999 773.235 247.899 773.074 250.799 776.762C252.141 778.48 253.341 780.27 255.131 781.738C260.018 785.731 264.547 785.247 267.321 779.877C268.664 777.281 266.731 776.529 264.69 776.439C261.701 776.314 260.698 775.007 260.376 771.982C259.91 767.793 256.438 766.378 252.338 768.347C250.691 769.135 249.617 768.706 248.382 767.578C245.84 765.268 244.104 762.082 240.219 761.258C238.411 760.882 238.877 759.02 240.452 758.555C243.656 757.606 245.733 755.171 248.042 753.113C250.065 751.305 251.712 751.018 253.914 752.593C255.775 753.918 257.906 754.527 260.233 753.882C261.987 753.399 263.258 752.379 263.437 750.481C263.616 748.637 262.363 747.885 260.788 747.509C258.962 747.062 257.315 746.542 256.724 744.305C254.379 735.425 254.325 735.425 245.411 735.067L245.518 735.175C240.398 729.392 243.585 723.968 246.27 718.561C252.41 706.191 258.89 694.017 266.104 682.22C268.431 678.424 268.753 673.859 270.168 669.742C272.119 664.12 274.983 659.699 278.671 655.259C287.818 644.195 293.582 630.858 301.978 619.275C307.724 611.362 314.848 604.667 321.776 597.864C325.249 594.445 328.22 590.811 330.995 586.89C331.639 585.995 332.069 584.491 332.893 584.223C340.966 581.752 336.992 577.115 334.575 573.428C331.281 568.433 329.42 562.561 325.267 558.085C324.783 557.566 324.336 556.778 324.318 556.098C324.228 546.753 317.158 540.792 313.345 533.255C312.02 530.641 311.519 527.902 314.097 525.664C315.278 524.644 316.298 522.818 318.285 523.677C319.932 524.393 319.807 526.112 319.861 527.562C319.968 531.16 321.794 532.682 325.052 534.383C328.382 536.101 335.094 535.725 333.447 542.886C333.233 543.817 334.289 544.444 335.327 544.515C336.58 544.587 337.493 543.943 337.958 542.868C338.871 540.756 339.301 538.071 338.281 536.388C335.846 532.378 335.685 527.025 331.192 524.232C330.583 523.856 330.172 523.176 329.652 522.639C327.415 520.383 327.612 517.608 328.041 514.815C328.185 513.867 328.829 512.81 329.867 513.133C332.481 513.974 333.877 516.122 335.112 518.503C339.301 526.542 343.544 534.508 342.649 544.05C342.487 545.751 343.293 547.326 344.385 548.633C345.495 549.976 345.656 552.536 348.073 552.285C350.65 552.016 350.059 549.582 350.489 547.899C350.668 547.183 350.74 546.306 351.187 545.822C352.798 544.122 352.745 540.398 355.376 540.505C357.65 540.595 356.826 543.889 357.488 545.697C358.043 547.219 358.67 548.454 360.424 548.579C362.017 548.687 363.27 548.042 364.165 546.664C365.257 544.981 365.58 542.063 368.909 544.462C371.594 546.395 373.152 548.973 371.362 551.461C368.211 555.812 369.464 559.159 371.934 563.026C373.331 565.21 374.441 567.609 377.323 566.428C380.419 565.157 380.097 562.453 378.826 559.84C378.522 559.213 378.253 558.551 378.003 558.014C378.844 557.065 379.703 557.28 380.133 557.835C383.14 561.702 384.931 567.609 391.93 564.584C392.198 564.459 393.129 565.067 393.237 565.461C394.579 570.527 398.517 570.724 402.742 570.993C405.731 571.19 407.002 572.336 403.888 575.021C400.827 577.653 401.757 580.374 404.729 582.808C408.112 585.583 413.733 586.264 413.823 592.225C421.395 593.568 419.819 601.821 424.008 605.723C424.671 606.35 425.279 607.8 425.745 607.728C433.549 606.565 435.501 613.171 439.099 617.575C440.101 618.81 441.426 619.83 442.912 619.347C451.057 616.733 456.856 620.6 462.155 626.007C463.283 627.152 464.446 627.278 465.503 626.15C466.398 625.165 467.221 624.252 468.635 624.073C469.996 623.912 478.141 619.257 478.731 618.398C482.598 624.95 483.994 625.326 491.244 621.388C494.234 619.759 496.74 618.935 499.622 621.996C502.593 625.147 504.562 621.262 505.726 619.723C508.751 615.731 510.488 616.214 512.188 621.728C514.229 616.303 517.881 615.48 522.177 615.856C525.345 616.142 527.869 615.068 529.892 612.437C533.383 607.907 540.132 606.099 540.937 599.243C541.027 598.401 542.28 597.667 543.193 598.097C547.757 600.299 547.811 597.399 547.489 594.302C546.952 589.02 550.944 587.66 554.56 586.532C557.818 585.529 559.196 583.9 558.945 580.589C558.749 577.885 559.626 575.773 561.738 573.75C564.387 571.226 565.551 567.502 567.413 564.441C570.062 560.055 572.944 555.167 577.938 552.643C580.051 551.569 580.069 550.584 580.158 548.132C580.337 543.477 577.938 539.503 578.064 535.063C578.099 533.505 577.33 531.483 579.478 530.731C581.518 530.015 582.36 531.948 583.505 533.04C584.168 533.667 584.705 534.436 585.224 535.188C586.101 536.441 585.439 539.109 587.748 538.894C589.61 538.733 591.078 536.853 591.543 535.206C592.921 530.426 596.036 526.237 596.287 521.081C596.43 518.002 597.683 515.55 599.956 513.294C606.293 506.974 613.06 501.049 617.213 492.796C619.827 487.604 619.057 485.187 613.185 484.704C609.641 484.418 607.905 482.735 606.651 479.727C604.593 474.786 602.391 469.97 598.918 465.728C596.197 462.416 598.739 452.784 603.984 449.83C608.853 447.091 611.449 443.01 614.385 438.856C616.73 435.544 618.985 432.143 621.545 428.992C627.076 422.171 625.823 414.831 617.625 411.233C612.827 409.121 607.278 406.954 602.301 407.402C588.661 408.619 574.806 409.908 562.365 416.64C555.401 420.399 553.325 424.964 556.242 432.107C558.015 436.439 555.616 435.992 553.146 435.974C551.015 435.974 549.386 434.649 547.632 433.575C545.788 432.447 543.586 432.322 541.904 433.79C540.132 435.329 541.957 436.762 542.566 438.212C545.359 444.782 548.151 451.334 550.872 457.94C552.036 460.751 551.767 463.74 551.731 466.712C551.696 469.469 552.949 470.507 555.544 468.663C558.104 466.855 560.736 465.173 563.313 463.382C570.671 458.244 570.653 458.227 567.699 449.562C567.234 448.183 566.5 446.608 567.967 445.462C569.364 444.406 570.223 446.035 571.351 446.465C574.269 447.575 577.706 447.879 580.086 449.651C585.134 453.375 588.392 458.656 588.768 465.065C589.126 471.349 589.825 477.865 588.554 483.916C586.996 491.346 584.365 498.829 580.641 505.417C577.902 510.286 577.025 514.869 577.007 520.097C576.99 522.352 576.936 523.337 573.159 524.232C568.2 525.414 565.085 522.728 561.111 522.71C554.56 522.693 551.57 525.467 551.606 532.127C551.642 537.122 552.519 542.063 551.731 547.093C551.194 550.513 549.726 553.502 546.827 554.72C538.216 558.318 531.163 564.333 523.269 569.042C521.282 570.241 519.349 570.778 517.021 570.814C513.155 570.868 509.521 571.512 505.941 573.66C500.177 577.115 495.755 574.359 495.558 567.806C495.487 565.407 494.878 562.955 495.2 560.628C495.612 557.584 493.804 552.5 500.946 554.863C503.667 555.758 508.25 553.395 510.953 551.229C514.229 548.633 508.68 548.651 508.68 546.485C509.091 545.017 510.541 545.053 511.759 544.963C514.909 544.712 517.057 544.909 516.234 539.915C515.589 535.994 520.691 533.523 523.86 531.16C528.299 527.866 533.132 525.109 537.787 522.102C539.684 520.867 541.832 519.255 541.814 517.125C541.796 514.35 538.664 515.37 536.945 514.601C533.759 513.169 530.519 511.88 527.44 510.25C525.31 509.123 523.645 507.368 521.282 510.161C520.065 511.611 518.812 510.537 518.006 508.854C515.07 502.732 513.334 502.266 508.608 507.064C505.869 509.839 504.312 510.573 501.77 506.939C498.745 502.606 493.625 502.535 489.687 504.271C485.874 505.954 482.67 505.811 479.967 503.716C474.883 499.76 470.228 501.836 465.646 503.967C459.273 506.921 452.435 507.261 445.704 508.299C441.82 508.89 439.063 510.197 438.419 514.511C437.81 518.647 434.462 519.058 431.222 519.005C425.476 518.915 419.748 518.539 414.002 518.324C409.079 518.145 406.465 520.204 405.033 525.324C403.154 532.02 401.453 538.035 404.747 545.035C407.253 550.334 404.192 555.848 401.847 560.914C401.256 562.167 399.949 562.686 399.43 561.236C398.356 558.264 395.689 555.704 397.39 551.945C399.323 547.666 397.551 543.853 396.459 539.449C394.454 531.321 388.582 525.521 385.843 517.841C384.125 513.043 379.184 507.869 374.387 503.913C366.743 497.611 366.761 493.404 370.914 484.238C374.924 475.377 383.284 470.149 387.687 461.753C390.355 456.669 388.887 452.158 383.194 451.442C376.929 450.636 371.326 447.288 364.917 447.27C363.7 447.27 362.268 446.715 361.319 445.946C353.998 440.038 344.403 438.462 336.938 432.752C329.115 426.772 322.993 419.772 319.95 410.266C318.804 406.686 316.674 403.625 315.779 399.758C313.291 388.819 307.473 379.421 300.205 370.935C298.487 368.93 296.178 368.393 293.618 369.073C291.058 369.771 290.235 371.705 290.163 374.14C290.091 376.735 290.056 379.331 289.948 381.927C289.572 390.86 289.554 390.824 281.409 393.438C278.885 394.244 277.221 392.812 276.469 391.003C275.323 388.282 275.144 385.185 276.558 382.446C277.06 381.479 277.972 382.375 278.653 383.162C279.709 384.398 281.105 385.328 282.215 386.51C283.021 387.369 283.79 388.157 285.043 387.799C286.583 387.351 286.798 385.955 286.78 384.648C286.637 374.104 288.355 363.506 281.481 353.785C277.4 348.02 276.898 340.376 275.484 333.376C273.73 324.64 271.743 316.029 268.932 307.489C266.05 298.699 260.984 291.001 259.338 281.406C256.796 266.654 253.001 251.957 246.556 238.046C243.997 232.497 244.82 225.354 247.111 219.052C247.684 217.495 248.74 215.919 248.669 214.38C248.346 207.147 252.911 201.633 255.059 195.278C256.814 190.104 258.908 185.038 260.555 179.846C262.488 173.706 267.357 168.944 268.539 162.481C268.664 161.747 269.631 161.264 270.329 161.675C274.822 164.325 275.234 162.821 273.461 158.739C273.229 158.184 273.426 157.182 273.802 156.645C279.942 148.034 282.77 137.275 290.324 129.666C297.377 122.559 303.087 114.557 308.959 106.554C315.314 97.9075 324.139 91.6954 333.412 86.5933C336.938 84.6598 341.986 84.3018 345.96 87.5421C348.86 89.9231 351.993 90.2991 353.711 86.5575C357.077 79.2713 364.38 77.7317 370.467 74.5809C373.026 73.2561 375.336 72.2536 376.678 69.5861C377.681 67.5811 379.757 66.1131 381.69 66.9545C388.188 69.7651 391.411 64.7883 394.436 61.2437C399.591 55.2106 405.284 49.3745 411.925 45.794C421.108 40.8172 428.967 34.0322 438.043 29.0196C442.5 26.567 445.901 23.7563 447.942 17.8307C450.43 10.5981 456.337 4.20703 465.324 0C463.05 4.69039 459.13 8.27085 464.751 11.7618C465.807 12.4242 464.232 13.4267 463.569 14.2681C460.974 17.5084 457.519 20.3907 458.074 25.2064C458.342 27.5874 459.201 29.7178 461.797 27.3726C464.124 25.278 466.648 25.9046 469.137 25.8688C471.088 25.833 473.88 24.8304 474.775 26.8713C475.831 29.2702 472.269 28.8406 471.392 30.3443C470.837 31.2932 469.656 32.4031 469.835 33.1729C470.962 37.8633 472.645 42.3926 473.665 47.1367C474.077 49.0343 477.264 47.8886 478.875 46.4922C480.36 45.1853 480.539 43.2698 480.897 41.4438C481.13 40.2264 480.915 38.5436 482.383 38.1139C484.263 37.5411 484.263 39.4029 484.728 40.5128C485.247 41.7481 486.339 42.5716 487.216 41.4259C491.119 36.3595 498.351 38.2392 502.575 33.8711C503.22 33.2087 504.849 33.155 505.493 34.3545C506.03 35.3391 505.046 35.8403 504.401 36.5206C501.949 39.1344 503.417 42.5 502.987 45.5255C502.701 47.4947 503.703 49.6072 502.396 51.4869C501.627 52.5969 500.678 53.7247 502.396 54.6914C503.667 55.4075 505.243 55.0674 505.941 53.9932C507.534 51.4869 510.165 51.1826 512.546 50.3233C516.825 48.7837 520.62 46.3669 524.558 44.1112C531.038 40.3875 538.449 40.3159 545.681 41.0141C550.12 41.4438 553.862 43.3235 555.884 48.1034C557.853 52.7401 563.152 54.0112 567.216 55.1032C571.762 56.3205 575.414 58.8985 580.856 60.3844C576.9 62.3715 574.859 64.3408 573.016 67.6885C569.471 74.1512 573.767 78.2329 575.432 82.9949C576.417 85.7698 578.977 88.7774 583.201 86.0562C584.239 85.3938 586.531 85.358 587.479 86.0741C593.297 90.4423 600.01 88.7416 606.311 88.8848C613.311 89.028 618.752 91.5701 624.32 95.7055C631.928 101.363 638.748 107.485 643.277 115.863C645.085 119.211 646.785 122.666 648.056 126.247C650.366 132.727 652.388 138.635 659.012 142.95C665.492 147.175 669.985 154.246 674.8 160.655C680.081 167.673 684.377 175.263 688.62 182.8C691.985 188.762 694.491 195.457 690.338 202.815C688.405 206.234 689.139 210.799 689.3 214.881C689.569 221.917 689.98 228.934 690.32 235.97C690.356 236.525 690.589 237.277 690.32 237.599C685.935 243.041 686.221 250.095 683.804 256.217C682.068 260.603 679.723 264.667 678.345 269.25C676.358 275.82 674.729 282.355 670.325 288.388C667.586 292.129 664.633 297.196 663.648 302.244C663.165 304.732 658.886 305.968 661.303 308.85C662.986 310.855 665.903 309.459 668.213 310.049C672.616 311.177 676.411 314.024 677.718 317.855C682.659 332.356 690.607 345.872 692.755 361.25C693.632 367.444 693.346 373.817 693.363 380.119C693.417 397.162 692.164 414.294 693.918 431.248C695.404 445.48 690.374 455.452 678.219 462.219C673.279 464.958 670.701 468.807 670.987 474.589C671.202 478.85 671.023 483.039 668.213 486.745C667.318 487.926 667.192 489.949 667.228 491.56C667.461 500.368 664.364 508.174 660.497 515.854C655.557 525.646 660.265 535.618 671.918 541.347C685.917 548.239 699.217 556.331 709.707 568.039C717.494 576.74 723.276 586.836 727.357 597.936C729.344 603.342 732.584 608.301 735.538 613.314C738.85 618.953 741.195 625.076 745.348 630.303C749.071 635.011 753.26 637.428 759.221 638.986C767.563 641.17 776.173 641.761 784.426 644.374C791.711 646.684 799.319 648.044 806.82 649.602C820.961 652.538 835.461 653.164 849.585 656.458C856.137 657.98 862.814 658.678 869.401 660.486C878.244 662.903 886.658 666.555 895.501 668.865C897.81 669.473 973.5 698 981.5 705C989.5 712 1034.91 733.08 1035 742.711C1035.04 747.223 1067 801.325 1068.5 807C1070 812.675 1081.5 842.964 1081.5 842.964H913C913 842.964 859.055 733.277 849.746 736.696C843.302 739.059 837.734 738.307 831.487 737.717C823.163 736.929 816.021 740.348 810.65 746.883C808.681 749.264 806.927 751.877 805.352 754.527C798.8 765.573 793 766.539 783.978 757.194C781.203 754.312 779.252 754.133 776.567 756.281C775.028 757.499 773.417 758.322 771.501 758.143C765.97 757.66 760.975 758.77 756.321 761.974C751.273 765.465 744.793 765.859 739.637 769.26C738.635 769.923 736.648 769.475 736.541 771.104C736.397 773.253 738.689 772.608 739.799 773.342C740.228 773.629 740.515 774.094 741.141 774.756C737.561 777.513 732.692 775.884 729.165 778.409C730.687 780.378 732.656 780.324 734.41 780.36C742.179 780.539 749.966 780.593 757.753 780.628C759.221 780.646 760.993 780.825 761.673 779.214C762.515 777.209 760.474 776.941 759.364 776.117C755.891 773.521 756.625 770.639 759.4 768.294C763.016 765.25 767.473 766.163 771.68 766.718C773.291 766.933 773.595 768.258 772.862 769.708C771.161 773.056 772.056 775.365 775.565 776.744C776.549 777.12 777.892 777.692 777.229 779.053C776.925 779.698 775.779 780.091 774.938 780.288C772.199 780.933 769.102 780.038 766.077 782.061C768.619 784.477 771.34 783.529 773.721 783.905C778.357 784.639 783.334 783.009 787.594 786.465C789.241 787.807 790.19 786.196 790.333 784.46C790.44 782.992 790.369 781.488 790.655 780.056C791.067 777.997 792.445 776.833 794.611 776.905C796.777 776.976 798.388 778.265 798.191 780.342C797.672 785.641 801.467 789.705 801.879 794.718C802.004 796.311 803.114 799.032 804.654 797.439C806.605 795.416 812.029 796.758 810.758 791.943C810.095 789.418 808.323 786.876 810.901 784.907C813.3 783.081 815.716 784.764 818.044 786.107C820.8 787.718 823.288 786.429 823.288 783.547C823.288 775.938 825.848 768.097 821.749 760.775C821.051 759.504 820.961 758.089 821.928 757.141C825.258 753.9 828.73 750.875 833.743 750.624C838.415 750.391 840.885 753.381 842.621 756.944C844.394 760.578 846.792 763.353 850.14 765.591C854.901 768.777 855.206 774.291 850.695 778.122C847.669 780.682 846.9 782.365 850.265 785.516C854.74 789.723 858.732 794.091 857.909 801.592C857.372 806.426 862.259 809.702 866.662 811.814C866.304 812.584 866.233 813.103 866 813.175C858.929 815.556 857.819 816.648 862.277 822.627C867.951 830.236 868.112 836.394 861.578 842.964C846.757 842.964 831.917 842.964 817.095 842.964C816.629 839.276 818.509 834.64 814.248 832.402C810.543 830.45 807.5 835.785 803.239 834.371C802.219 834.031 801.7 836.698 802.273 838.113C802.953 839.813 803.991 841.353 804.868 842.964C736.666 842.964 668.445 842.964 600.243 842.964C602.373 840.726 604.342 838.31 606.651 836.287C613.776 830.057 618.752 821.231 628.526 818.259C628.795 810.543 639.947 815.968 640.431 808.431C640.431 808.413 641.505 808.628 642.006 808.484C644.78 807.607 647.841 807.124 650.222 805.584C652.245 804.277 656.291 802.362 654.447 799.623C650.544 793.787 654.823 791.28 657.92 788.165C661.5 784.585 660.515 780.414 659.62 776.368C659.209 774.506 657.776 774.578 656.273 775.956C654.662 777.442 652.782 779.572 650.938 779.68C644.691 780.056 641.576 784.835 638.873 788.846C636.51 792.372 631.695 796.347 634.792 801.682C636.689 804.94 635.436 805.387 632.715 806.64C626.593 809.451 620.328 812.244 616.372 818.259C615.495 819.584 614.349 820.712 612.988 821.768C605.631 827.461 600.386 834.962 595.768 842.946C587.247 842.946 578.708 842.946 570.187 842.946C565.014 830.54 557.048 819.673 550.836 807.822C547.954 802.308 547.346 796.275 544.911 790.725C543.927 788.47 544.66 785.748 546.54 783.475C549.136 780.36 551.212 776.815 553.736 773.647C555.849 771.015 555.383 769.493 552.107 769.368C548.241 769.225 544.285 768.974 540.722 771.051C536.372 773.593 531.575 773.289 527.261 771.803C520.011 769.296 513.047 765.859 505.941 763.031C498.78 760.166 497.151 754.831 495.934 748.762C495.2 745.146 493.75 742.944 489.973 742.711C486.071 742.479 482.688 740.581 481.9 737.001C480.987 732.865 477.765 730.538 476.064 727.119C474.757 724.505 470.748 724.738 469.602 721.408C468.206 717.398 465.055 714.766 461.224 712.994C458.253 711.597 455.782 709.377 455.066 706.298C454.171 702.503 451.361 700.677 448.962 698.188C443.144 692.12 432.207 691.618 430.47 681.163C430.417 680.877 430.005 680.573 429.701 680.394C423.203 676.831 419.121 671.084 414.843 665.195C409.509 657.855 401.704 652.412 396.029 645.592C386.631 634.313 373.295 627.045 365.723 614.209C364.291 611.792 361.731 609.93 359.332 611.237C356.754 612.651 357.685 616.053 358.491 618.362C359.601 621.495 361.14 624.431 360.943 627.922C360.532 635.495 364.649 642.011 366.367 649.083C367.209 652.52 367.907 656.261 369.518 659.591C373.044 666.877 376.213 674.361 380.24 681.342C382.138 684.636 383.194 688.253 385.378 691.493C390.032 698.403 394.311 705.69 397.694 713.28C403.351 725.937 409.992 738.003 417.636 749.514C419.318 752.039 421.395 753.256 416.937 754.527C415.219 755.01 414.789 756.049 416.15 757.875C418.763 761.401 421.055 765.179 423.4 768.902C426.622 774.023 429.916 779.125 431.777 784.925C432.457 787.055 432.493 789.472 430.148 790.886C428.645 791.799 426.908 791.961 425.476 790.69C424.313 789.669 423.4 787.306 421.663 789.347C420.482 790.743 420.965 792.927 421.86 794.628C425.369 801.252 425.405 808.842 427.732 815.824C428.752 818.868 428.913 822.233 430.112 825.42C432.458 831.614 436.396 836.931 438.92 843C364.47 843.036 289.966 843.036 215.445 843.036ZM310.284 315.868C308.762 311.213 308.673 307.042 306.345 303.622C305.952 303.032 306.238 301.779 306.524 300.955C308.673 294.797 310.033 288.155 313.327 282.659C316.477 277.414 316.263 272.204 316.656 266.744C316.943 262.895 315.708 258.509 317.963 255.322C320.416 251.867 320.111 248.412 320.075 244.778C320.058 243.202 320.416 241.036 318.285 240.624C316.424 240.266 316.137 242.343 315.421 243.542C310.839 251.223 306.31 258.813 299.418 264.882C293.439 270.163 291.774 280.242 295.551 286.239C298.039 290.178 298.541 294.385 296.768 297.858C292.544 306.129 294.083 315.349 291.506 323.852C290.414 327.45 290.772 331.586 290.879 335.453C291.004 340.215 294.191 342.273 298.469 340.644C300.76 339.767 303.141 339.588 305.558 339.481C307.76 339.391 310.158 339.749 311.984 338.281C316.101 335.005 321.4 334.289 326.019 332.75C337.368 328.954 349.469 326.716 361.23 325.32C377.645 323.369 394.06 319.412 410.887 321.435C416.526 322.116 422.379 320.522 427.929 322.742C433.907 325.123 439.958 324.586 445.919 322.939C448.407 322.259 450.824 321.077 453.437 321.095C465.521 321.167 476.297 316.405 487.216 312.162C494.538 309.315 495.737 303.479 490.027 298.341C488.559 297.017 487.288 295.441 485.963 294.098C480.217 288.227 473.648 283.286 467.991 277.27C463.319 272.311 462.8 265.509 458.45 260.693C457.752 259.923 457.787 258.383 456.302 258.527C454.565 258.688 454.368 260.227 454.404 261.445C454.547 265.723 452.865 270.342 456.892 273.958C457.68 274.657 457.68 276.357 457.805 277.611C457.931 278.685 457.913 280.009 456.677 280.475C455.227 281.03 454.959 279.633 454.368 278.738C452.041 275.229 449.589 271.792 447.297 268.266C445.131 264.918 442.661 263.718 439.009 266.225C435.841 268.409 432.207 269.071 428.43 268.301C427.266 268.069 424.957 266.994 425.959 266.225C429.379 263.539 427.356 257.112 433.263 256.271C434.928 256.038 436.485 254.499 437.953 253.389C439.546 252.171 439.242 250.435 438.759 248.806C438.275 247.177 436.969 246.514 435.411 246.317C426.371 245.136 420.75 250.184 421.198 259.01C421.287 260.908 421.198 262.859 419.3 263.897C417.671 264.792 416.132 264.166 414.646 263.181C410.654 260.514 406.555 262.465 405.964 267.317C405.696 269.519 405.606 271.756 405.678 273.958C405.803 277.646 406.662 279.795 411.048 277.145C416.168 274.048 421.52 270.557 427.66 275.301C427.911 275.498 428.376 275.409 428.734 275.498C435.877 277.252 442.84 279.49 448.98 283.697C450.985 285.058 454.332 287.081 453.276 289.086C451.916 291.664 449.642 288.209 447.655 287.797C446.331 287.528 444.934 287.063 444.29 288.62C443.735 289.999 445.078 290.429 446.044 290.93C446.975 291.413 448.461 291.628 447.87 293.114C447.423 294.26 446.08 294.295 444.97 294.313C439.725 294.403 439.152 295.978 442.625 300.006C443.646 301.188 446.814 302.996 444.952 304.84C443.341 306.433 440.155 307.436 437.899 307.078C436.163 306.809 431.992 306.183 432.816 303.318C434.695 296.855 430.936 299.899 428.788 300.597C421.735 302.835 417.295 301.403 412.981 295.638C411.675 293.902 410.099 291.932 408.202 291.145C401.757 288.441 399.18 283.25 397.927 276.948C397.694 275.802 397.676 273.547 395.94 274.513C388.045 278.935 390.999 272.15 390.981 269.537C390.892 253.604 391.124 237.688 391.196 221.755C391.214 219.553 391.106 217.405 389.621 215.436C387.132 212.088 387.634 208.651 389.531 205.053C392.001 200.38 394.096 195.529 396.351 190.749C397.211 188.941 396.996 187.383 394.937 186.739C392.825 186.058 388.905 185.682 389.137 187.58C389.782 193.022 385.163 194.132 382.818 196.889C377.448 203.244 379.954 211.444 377.394 218.551C376.249 221.737 376.231 223.259 372.847 223.671C369.804 224.047 369.661 225.837 371.594 227.86C374.942 231.387 375.765 237.044 381.153 238.888C382.621 239.389 382.979 241.161 383.051 242.683C383.212 245.923 384.662 248.663 386.022 251.527C387.974 255.644 388.618 260.353 385.611 264.058C383.839 266.243 383.176 267.048 385.897 268.427C386.971 268.964 387.651 269.93 387.007 271.148C386.237 272.58 384.805 272.669 383.642 271.971C381.601 270.754 379.596 269.393 377.842 267.8C375.604 265.759 371.827 264.094 375.568 260.03C376.75 258.759 375.944 256.79 375.031 255.34C374.602 254.66 373.546 254.463 373.08 255.054C369.858 259.189 368.981 255.34 367.817 253.442C364.327 247.696 361.588 241.52 358.151 235.701C353.765 228.272 353.031 218.963 346.247 212.625C344.492 210.996 343.74 210.047 342.219 212.464C339.48 216.814 337.135 216.152 335.166 211.802C334.79 210.96 334.414 209.886 333.304 210.047C331.997 210.226 331.711 211.462 331.443 212.554C331.102 213.986 331.102 215.561 330.476 216.85C328.972 219.947 325.804 220.108 324.032 217.334C323.262 216.116 323.835 213.288 321.239 214.219C319.485 214.863 319.932 217.083 319.843 218.694C319.306 227.574 323.709 235.469 325.231 243.972C325.732 246.801 325.857 248.161 324.676 250.954C322.671 255.698 320.111 260.496 319.95 266.099C319.771 272.598 320.881 279.275 316.961 285.47C315.332 288.048 315.511 292.004 318.142 294.815C319.61 296.39 320.093 298.27 318.858 299.863C315.296 304.428 314.061 310.157 310.284 315.868ZM449.481 473.121C447.763 467.088 445.794 463.508 440.459 462.702C437.004 462.165 435.035 458.996 432.959 456.526C431.688 455.004 431.58 452.641 434.516 451.764C443.234 449.132 452.31 448.058 460.329 452.569C467.382 456.526 472.144 452.784 476.941 449.616C483.493 445.301 487.198 438.158 491.817 431.982C494.305 428.652 497.223 427.649 500.732 430.836C507.946 437.388 507.981 437.37 516.055 432.555C525.399 426.987 526.491 415.1 517.451 409.407C509.628 404.484 503.256 398.075 496.435 392.078C494.645 390.502 493.088 388.515 490.439 388.354C486.321 388.103 484.692 385.651 484.316 381.82C483.815 376.592 482.025 371.651 479.859 366.997C476.637 360.05 469.87 361.554 463.892 361.107C459.005 360.731 455.908 363.452 454.547 367.193C451.629 375.214 446.814 382.518 446.116 391.469C445.847 394.835 444.165 398.737 442.303 401.637C436.539 410.642 430.095 419.235 423.686 427.811C418.745 434.416 417.725 440.253 422.272 446.805C424.438 449.92 423.686 451.388 421.395 453.035C416.83 456.293 413.25 460.643 407.826 463.078C403.082 465.208 399.215 468.592 397.569 474.965C396.226 480.157 396.495 487.515 389.442 490.289C388.242 490.755 387.902 492.402 388.439 493.745C388.94 495.034 389.943 494.962 391.196 494.64C395.098 493.673 394.114 496.197 393.344 498.059C392.807 499.366 391.178 500.315 390.909 501.604C390.498 503.483 390.05 506.294 392.216 507.064C395.098 508.084 394.472 505.023 395.009 503.483C396.763 498.56 400.665 495.839 404.46 497.844C409.849 500.691 413.339 499.33 416.203 494.407C416.902 493.207 417.457 491.113 419.139 491.56C420.983 492.044 420.786 494.192 420.911 495.839C420.965 496.573 420.911 497.325 420.947 498.059C421.019 500.171 420.106 502.946 423.095 503.627C425.763 504.235 429.092 504.701 430.936 502.373C432.977 499.796 433.89 498.847 438.132 499.008C445.436 499.276 453.348 500.01 460.616 496.609C463.516 495.248 468.367 497.432 469.208 492.527C469.924 488.32 465.735 486.924 463.247 484.65C462.71 484.149 462.012 483.827 461.385 483.451C458.521 481.732 455.979 480.765 454.494 485.169C453.545 487.998 451.88 488.105 450.287 485.474C449.839 484.722 449.302 483.146 448.55 483.791C444.863 486.978 440.549 483.666 436.772 485.241C435.501 485.76 433.979 488.159 432.887 485.223C432.135 483.236 433.514 482.072 435.34 481.625C438.92 480.765 441.122 478.009 442.607 475.198C444.129 472.262 445.346 470.472 449.481 473.121ZM492.909 237.223C492.229 232.425 489.508 229.256 486.608 231.709C483.905 234.001 476.261 233.338 479.376 240.732C480.378 243.131 480.074 244.975 476.172 244.062C472.359 243.167 466.505 247.051 467.579 248.913C469.62 252.44 468.904 256.056 468.993 259.726C469.101 264.846 473.576 267.657 478.176 265.688C479.877 264.954 481.775 263.897 483.332 265.491C485.104 267.317 484.048 269.554 482.777 271.022C480.629 273.493 481.381 274.531 483.565 276.733C489.347 282.569 497.617 284.807 503.13 290.894C503.936 291.771 505.386 291.932 505.225 293.758C504.849 297.983 505.583 298.628 509.288 296.551C512.689 294.653 515.5 295.119 518.686 296.712C521.783 298.27 525.041 298.144 528.353 296.855C534.278 294.546 540.185 292.058 546.307 290.464C550.192 289.462 551.32 288.567 548.491 285.291C547.65 284.324 546.952 283.232 546.182 282.193C545.18 280.815 543.909 279.007 545.233 277.718C547.256 275.749 547.847 278.738 548.975 279.544C553.02 282.462 555.67 287.51 561.738 287.242C569.131 286.92 576.542 286.866 583.953 286.651C585.815 286.597 587.909 286.526 588.464 284.27C589.001 282.122 587.229 281.137 585.85 279.83C579.8 274.066 574.698 267.818 574.555 258.759C574.43 251.061 570.903 247.553 563.6 245.548C555.24 243.274 547.256 239.89 541.062 233.571C538.592 231.047 535.799 230.76 532.935 231.333C526.992 232.533 521.353 235.236 515.178 231.333C512.833 229.847 510.935 232.371 510.291 235.093C509.825 236.99 510.774 239.55 508.178 240.839C504.527 231.53 499.658 227.806 492.909 237.223ZM315.529 760.632C315.636 760.632 315.743 760.632 315.851 760.632C315.851 765.626 315.851 770.639 315.851 775.634C315.851 777.048 316.531 779.143 314.49 779.286C312.199 779.447 312.235 777.102 312.235 775.562C312.253 767.972 312.468 760.381 312.503 752.79C312.521 748.225 314.097 743.338 311.411 739.256C309.621 736.553 309.102 733.939 309.084 730.932C309.048 725.561 308.601 720.155 309.013 714.82C309.496 708.554 310.767 702.342 311.626 696.094C312.378 690.58 312.503 685.012 311.841 679.481C311.626 677.69 310.373 676.24 308.368 676.813C306.149 677.44 307.133 679.069 307.742 680.411C308.959 683.079 308.082 685.138 306.596 687.59C304.52 690.992 301.369 695.217 302.855 698.779C305.54 705.152 301.924 711.508 304.233 717.684C304.806 719.224 304.86 722.858 302.121 722.339C297.538 721.461 298.183 724.183 297.986 726.707C296.965 739.435 298.827 752.128 295.014 765C292.329 774.058 294.244 784.495 294.28 794.306C294.28 795.81 294.227 799.354 296.876 797.51C301.029 794.61 306.22 793.464 309.693 789.275C311.411 787.199 313.918 784.567 317.605 787.592C319.109 788.828 321.704 787.825 322.94 785.945C324.282 783.869 325.124 781.541 328.381 783.367C329.42 783.958 330.494 782.813 330.744 781.631C331.21 779.447 331.478 777.138 330.172 775.168C329.294 773.844 328.364 774.935 327.397 775.49C324.515 777.155 324.157 775.329 324.533 773.109C324.998 770.245 327.254 768.33 328.74 766.002C329.76 764.391 330.601 762.744 328.131 762.117C323.709 760.99 323.763 757.66 323.745 754.258C323.727 750.195 323.942 746.113 323.745 742.049C323.656 740.187 324.085 737.036 321.633 737.036C319.592 737.036 317.39 739.131 316.316 741.315C315.69 742.586 315.618 744.197 315.6 745.665C315.475 750.642 315.529 755.637 315.529 760.632ZM405.194 222.615C403.744 228.791 407.718 235.254 409.544 242.128C410.421 245.476 413.142 246.443 416.06 244.581C417.815 243.453 419.623 242.791 421.502 242.039C424.438 240.875 427.284 232.586 425.208 231.637C418.942 228.791 420.929 224.28 422.755 220.09C424.957 215.06 424.08 209.958 424.062 204.838C424.062 203.907 423.561 202.797 422.487 202.886C414.288 203.62 410.744 196.782 405.66 192.521C404.478 191.536 403.583 190.373 401.919 190.802C400.29 191.232 399.538 192.503 399.359 194.078C398.84 198.679 398.446 203.28 399.001 207.899C399.18 209.331 399.448 211.462 401.489 210.638C406.304 208.687 405.338 212.339 405.517 214.594C405.678 216.796 405.355 219.016 405.194 222.615ZM690.983 756.604C689.998 758.233 687.009 758.125 686.525 760.739C686.132 762.869 687.349 764.284 689.228 765.071C692.325 766.396 695.189 768.025 697.32 770.728C697.91 771.48 698.859 772.447 699.593 771.964C705.124 768.258 710.28 769.386 715.507 772.644C716.438 773.217 718.138 773.217 718.89 771.695C719.606 770.227 718.675 769.314 717.673 768.365C716.599 767.363 715.614 766.235 714.666 765.107C713.466 763.693 714.039 762.422 715.596 762.243C723.974 761.204 721.701 759.361 716.098 757.015C715.31 756.693 714.737 755.78 714.129 755.1C708.275 748.601 704.265 749.478 701.473 757.946C700.918 759.611 700.327 761.169 698.412 761.473C696.371 761.813 694.778 761.043 693.954 759.02C693.435 757.875 693.149 756.478 690.983 756.604ZM498.727 485.85C498.637 484.722 498.834 481.607 494.592 484.221C494.108 484.525 492.909 484.4 492.533 484.006C488.344 479.691 484.657 483.057 481.864 485.42C479.698 487.246 476.064 489.681 477.801 493.655C479.054 496.519 482.133 496.681 484.585 495.839C488.559 494.496 492.175 492.348 496.543 491.936C498.566 491.74 498.906 489.376 498.727 485.85ZM353.443 727.172C353.443 724.415 353.568 721.641 353.389 718.884C353.3 717.38 353.837 714.838 351.653 714.873C349.522 714.909 349.988 717.451 349.988 718.955C349.988 729.464 350.077 739.954 350.239 750.463C350.274 752.343 349.415 755.333 352.029 755.565C354.696 755.816 356.647 753.542 357.309 750.785C357.829 748.601 357.972 746.202 356.79 744.305C353.514 738.952 353.586 733.08 353.443 727.172ZM412.48 182.854C414.002 182.746 414.932 182.746 415.845 182.621C417.242 182.424 418.978 182.854 419.748 181.207C420.643 179.273 418.692 178.629 417.743 177.77C413.375 173.831 408.506 170.949 402.33 171.235C400.63 171.307 398.857 171.325 398.517 173.491C398.249 175.174 398.428 177.215 400.039 177.895C404.299 179.721 407.754 183.82 412.48 182.854ZM476.333 138.922C476.046 138.546 475.509 138.027 475.241 137.4C473.021 132.155 469.154 128.019 466.004 123.4C464.876 121.753 464.697 119.462 461.69 121.163C458.933 122.72 456.803 124.761 458.629 127.661C462.316 133.515 467.472 137.991 473.934 140.712C475.133 141.213 476.1 140.694 476.333 138.922ZM308.744 173.043C308.064 170.465 310.194 166.33 307.437 165.578C305.039 164.916 302.354 168.156 300.617 170.734C300.42 171.02 300.062 171.217 299.794 171.468C295.068 175.836 300.116 179.005 301.208 182.639C301.637 184.089 302.747 184.787 304.197 183.928C307.223 182.12 309.228 179.667 308.744 175.818C308.655 174.905 308.744 173.974 308.744 173.043ZM369.786 796.758C368.981 798.763 365.866 799.551 367.495 803.4C369.733 808.699 370.914 814.446 372.525 819.995C372.901 821.302 372.364 823.683 374.297 823.397C376.302 823.111 377.77 821.105 377.179 818.832C376.624 816.701 375.568 814.643 375.873 812.405C376.607 807.16 373.975 802.863 372.203 798.298C371.845 797.367 371.415 796.669 369.786 796.758ZM244.355 799.802C250.208 797.904 257.028 796.096 263.222 792.444C264.654 791.603 267.608 792.122 266.856 789.418C266.319 787.485 263.902 787.503 262.059 787.503C260.233 787.503 258.407 787.539 256.831 788.792C252.696 792.068 247.988 794.145 242.869 795.344C241.347 795.702 238.895 795.308 238.966 797.457C239.038 800.07 241.634 799.3 244.355 799.802ZM346.3 336.187C346.032 334.916 346.533 333.179 344.886 332.391C342.899 331.461 341.986 333.125 340.769 334.235C338.782 336.043 338.138 338.836 335.685 340.43C334.199 341.396 334.575 343.849 335.273 345.585C336.097 347.626 338.048 347.035 339.605 346.91C343.096 346.642 346.426 341.253 346.3 336.187ZM602.14 811.832C601.335 809.97 600.1 808.466 597.683 808.807C596.448 808.986 595.302 810.382 594.031 809.648C588.017 806.157 584.741 811.975 580.265 813.64C579.191 814.034 578.744 815.269 579.531 816.433C580.14 817.328 581.393 817.489 582.02 817.006C587.408 813.032 593.673 814.356 599.652 813.801C600.78 813.694 601.908 813.443 602.14 811.832ZM611.449 112.981C611.968 113.608 612.433 114.395 612.595 114.342C618.77 112.032 617.464 120.178 621.885 121.037C623.729 121.395 625.841 122.899 627.936 122.72C630.155 122.523 630.871 120.375 628.992 119.301C624.713 116.866 622.762 112.373 619.164 109.365C617.857 108.273 616.837 107.324 615.459 108.506C613.973 109.795 612.809 111.442 611.449 112.981ZM340.93 703.094C343.472 693.301 340.483 682.954 344.922 672.696C338.621 676.383 336.509 693.802 340.93 703.094ZM333.233 637.375C329.939 646.487 324.569 655.42 330.243 665.553C328.829 655.85 336.204 647.274 333.233 637.375Z" fill="#E0AAFE"/>
<path d="M14.1486 843.036C14.0591 840.082 12.9134 838.489 9.61967 839.258C8.00859 839.634 6.3259 839.795 4.66111 839.795C3.06793 839.795 1.06303 840.315 0.203783 838.435C-0.673362 836.501 1.51055 836.09 2.4056 835.087C4.05248 833.261 5.44875 831.668 4.28519 828.75C3.10373 825.796 6.14689 824.185 7.68637 822.341C16.8516 811.313 27.4311 801.664 38.2612 792.337C43.5061 787.825 49.0554 783.457 55.5176 780.611C59.1873 778.999 60.9237 775.061 64.3428 773.163C66.2761 772.089 67.923 769.583 70.5902 772.197C72.8995 774.452 73.4723 776.887 72.0939 779.715C69.5162 784.997 66.7952 790.224 64.2533 795.541C61.4608 801.341 61.8546 802.075 67.923 803.185C72.9711 804.116 73.4723 805.763 70.8766 810.4C69.6952 812.512 65.4885 814.947 68.5495 817.131C71.4137 819.172 72.8279 814.911 74.4031 812.799C75.3877 811.456 76.2469 809.952 77.4642 808.86C82.5839 804.259 84.9826 798.602 84.9289 791.728C84.911 789.347 85.806 787.037 87.0412 784.889C89.7621 780.091 92.6442 775.508 89.1177 769.565C87.7751 767.291 88.6881 764.158 90.9257 761.921C95.4546 757.391 97.7996 751.609 100.216 745.791C101.863 741.798 104.763 737.251 109.113 737.753C113.91 738.307 119.567 738.182 122.95 744.072C125.421 748.386 125.671 751.054 123.237 755.476C120.677 760.112 121.733 765.34 125.528 769.887C130.093 775.365 129.663 776.045 122.754 777.263C115.325 778.552 112.801 782.311 112.747 789.741C112.729 793.017 110.885 796.436 109.346 799.533C107.735 802.774 107.341 805.835 108.916 809.093C111.404 814.213 111.565 819.602 109.417 824.668C108.057 827.855 109.954 829.949 110.294 832.563C110.742 836.036 110.76 839.581 110.957 843.09C97.2447 843.09 83.5326 843.09 69.8026 843.09C69.7489 839.975 69.2298 837.182 65.6138 836.143C63.412 835.499 62.6243 833.637 62.1768 831.507C61.8009 829.717 61.7114 827.371 60.5478 826.333C55.3207 821.714 55.1059 815.95 55.3744 809.63C55.6251 803.472 53.5664 802.326 47.4085 804.277C46.2987 804.635 45.3857 804.761 44.2401 804.438C37.384 802.595 34.7884 804.797 32.0853 811.223C30.0446 816.093 28.0218 821.338 23.3497 824.919C17.693 829.251 14.7214 837.021 20.8794 843.107C18.6059 843.036 16.3862 843.036 14.1486 843.036Z" fill="#E0AAFE"/>
<path d="M166.432 788.452C166.02 794.664 170.119 797.224 175.042 799.068C176.42 799.587 178.533 799.39 179.195 800.303C184.905 808.287 193.373 806.694 201.321 807.124C203.254 807.231 206.673 806.318 206.387 809.63C206.19 811.993 204.203 814.303 201.016 814.231C197.329 814.141 193.623 814.052 189.936 814.088C188.862 814.106 187.465 814.267 187.233 815.574C186.91 817.346 188.611 817.435 189.739 817.919C190.079 818.062 190.473 818.08 190.813 818.205C193.48 819.279 197.436 816.666 198.922 819.942C200.05 822.43 199.262 825.724 199.513 828.66C199.924 833.44 200.479 838.22 200.98 843C193.194 843 185.407 843 177.62 843C178.228 839.616 177.942 837.11 173.914 835.624C169.904 834.138 170.012 830.003 171.802 827.121C174.774 822.323 171.909 817.901 172.035 813.336C172.249 805.244 167.058 799.676 162.762 793.661C161.831 792.354 159.2 791.227 160.775 789.078C162.243 787.073 164.552 788.541 166.503 788.559L166.432 788.452Z" fill="#E0AAFE"/>
<path d="M122.038 843.036C122.127 840.458 122.252 837.862 122.288 835.284C122.342 832.044 123.774 830.092 127.086 829.573C130.576 829.036 132.921 827.407 132.832 823.433C132.742 819.423 130.004 818.707 126.835 818.402C123.416 818.062 122.199 816.129 122.235 812.763C122.27 808.735 124.687 809.952 127.211 809.326C131.543 808.234 134.246 804.241 136.126 800.16C138.56 794.897 140.225 794.538 144.45 798.495C148.943 802.72 148.567 808.126 148.137 813.479C147.332 823.522 147.887 833.386 150.948 843.054C141.299 843.036 131.668 843.036 122.038 843.036Z" fill="#E0AAFE"/>
<path d="M446.778 843.036C443.968 837.361 441.247 831.614 440.065 825.348C439.439 822.019 435.232 820.497 435.966 816.576C436.217 815.198 435.322 813.175 437.058 812.638C438.955 812.029 439.117 814.303 439.922 815.377C445.149 822.215 450.179 829.215 455.585 835.893C457.393 838.131 457.948 840.386 457.895 843.018C454.189 843.036 450.484 843.036 446.778 843.036Z" fill="#E0AAFE"/>
<path d="M166.521 788.559C166.754 785.963 167.076 783.385 168.472 781.094C169.725 779.053 169.743 776.905 169.26 774.667C167.613 766.915 169.815 762.35 177.333 759.128C179.929 758.018 181.934 757.033 182.364 753.99C182.614 752.146 184.172 751.412 185.729 750.642C189.22 748.959 192.657 747.205 193.57 742.783C194.053 740.492 196.094 739.865 198.17 739.328C202.896 738.093 206.405 735.676 207.872 730.52C208.893 726.94 211.846 724.881 215.695 724.415C218.774 724.039 222.139 723.878 219.58 719.224C219.347 718.812 219.49 718.114 219.633 717.595C220.117 715.822 221.549 714.068 223.088 714.605C226.597 715.858 231.108 713.907 233.686 717.398C235.046 719.242 234.509 721.873 232.397 723.341C229.121 725.615 228.637 729.106 230.553 731.612C235.297 737.788 231.699 743.624 229.694 748.744C227.545 754.276 224.288 759.486 221.781 765.036C219.633 769.815 216.304 774.166 212.366 777.943C210.432 779.787 208.177 781.488 209.448 785.444C210.253 787.968 207.496 791.262 204.149 791.334C199.352 791.424 196.219 794.001 193.301 797.116C191.869 798.656 190.133 799.139 188.325 799.068C185.138 798.942 181.128 799.193 184.297 793.894C185.12 792.533 185.049 791.012 183.76 789.83C182.865 789.007 181.486 788.667 180.681 789.383C175.561 793.93 171.068 790.403 166.45 788.434C166.432 788.452 166.521 788.559 166.521 788.559Z" fill="#E0AAFE"/>
<path d="M228.244 688.521C234.491 692.263 234.903 693.767 229.694 698.35C224.198 703.183 218.452 707.677 213.404 713.029C211.095 715.464 208.123 716.878 204.614 717.29C200.014 717.827 197.186 720.584 196.845 725.275C196.541 729.517 194.554 731.702 190.312 732.024C188.36 732.167 186.964 733.241 185.872 734.96C182.919 739.543 178.694 740.778 173.717 738.451C170.764 737.072 167.935 735.372 165.035 733.796C165.304 731.881 166.969 731.827 167.971 732.203C173.18 734.226 174.863 730.413 176.671 727.047C177.978 724.648 178.658 722.034 180.609 719.832C182.829 717.308 181.057 714.122 177.154 713.71C172.751 713.262 168.132 713.173 164.015 715.017C160.524 716.574 156.908 717.684 153.275 717.326C147.815 716.789 143.536 720.817 138.274 720.531C136.698 720.441 134.371 721.336 133.959 719.224C133.494 716.825 136.197 717.416 137.54 716.771C147.654 711.937 158.806 710.273 169.26 706.316C175.221 704.06 181.988 703.201 188.325 701.429C190.276 700.874 192.943 701.232 190.831 697.884C190.007 696.577 190.902 696.004 192.084 695.467C202.216 690.884 212.509 686.749 222.927 682.828C228.154 680.859 234.008 680.447 238.787 677.01C240.273 675.936 242.94 675.256 244.301 677.386C245.572 679.355 242.922 680.054 242.063 681.289C238.769 685.943 233.882 687.841 228.244 688.521Z" fill="#E0AAFE"/>
<path d="M490.206 581.072C488.129 576.077 485.892 576.023 482.186 577.849C479.018 579.407 475.527 578.369 473.111 574.752C470.927 571.458 468.653 568.129 464.446 566.607C461.403 565.497 461.099 562.418 461.94 559.5C462.925 556.08 465.001 557.405 467.167 558.282C468.062 558.64 469.53 558.551 470.318 558.032C474.274 555.4 476.762 556.778 478.212 560.789C480.432 560.18 479.913 558.229 480.79 557.136C482.186 555.382 483.797 553.252 486.071 553.646C488.523 554.093 491.727 555.74 491.745 558.229C491.781 565.389 493.392 572.765 490.206 581.072Z" fill="#E0AAFE"/>
<path d="M881.932 771.283C888.842 767.041 889.486 765.591 886.192 759.11C884.581 755.941 885.977 754.76 888.466 754.527C893.585 754.061 893.872 752.074 892.046 747.688C890.345 743.607 892.529 738.469 888.842 734.584C887.839 733.528 889.253 732.131 890.739 731.988C893.317 731.719 896.199 731.29 897.345 734.494C897.882 735.998 897.756 737.788 897.774 739.435C897.828 754.634 897.899 769.815 897.828 785.014C897.828 786.805 898.92 790.135 896.217 789.991C893.836 789.866 892.207 786.858 892.279 784.066C892.529 774.613 892.583 774.613 883.704 772.447C883.203 772.358 882.809 771.892 881.932 771.283Z" fill="#E0AAFE"/>
<path d="M235.708 711.723C233.167 711.705 230.446 706.37 231.806 703.864C232.307 702.933 233.113 701.948 234.026 701.465C241.759 697.311 244.498 688.611 250.781 683.151C253.609 680.698 253.323 676.294 256.617 673.967C258.586 672.57 260.465 671.317 262.542 672.893C264.618 674.468 263.509 676.545 262.435 678.353C258.729 684.619 255.095 690.92 251.3 697.132C249.564 699.979 247.29 702.539 244.337 704.132C241.419 705.725 238.089 706.638 237.373 710.559C237.23 711.347 236.514 711.687 235.708 711.723Z" fill="#E0AAFE"/>
<path d="M290.825 426.343C292.902 426.987 293.027 427.972 292.991 428.867C292.508 440.378 296.536 450.851 300.259 461.431C301.208 464.116 300.975 467.249 301.118 470.185C301.262 473.318 300.957 476.469 303.087 479.19C304.036 480.407 304.358 482.072 303.481 483.379C302.389 484.99 301.799 487.891 299.758 487.729C296.804 487.497 298.433 484.507 297.986 482.735C295.838 474.303 294.996 465.549 291.864 457.367C290.646 454.163 290.986 450.815 290.503 447.539C290.056 444.495 289.805 441.739 288.033 438.785C285.204 434.094 290.807 430.836 290.825 426.343Z" fill="#E0AAFE"/>
<path d="M322.241 505.703C316.656 501.944 315.6 512.757 310.534 508.514C308.673 510.501 312.843 513.294 309.263 514.404C307.151 515.066 304.734 515.174 303.034 513.365C301.333 511.557 301.154 509.409 302.801 507.35C304.824 504.826 302.354 502.875 301.942 500.673C301.494 498.328 300.492 495.768 302.568 493.906C304.895 491.811 308.1 492.026 310.337 493.566C314.902 496.734 318.858 500.691 322.241 505.703Z" fill="#E0AAFE"/>
<path d="M897.846 818.474C897.846 819.942 897.935 821.428 897.828 822.878C897.667 824.793 898.669 827.085 896.45 828.41C894.946 829.305 893.514 828.481 892.458 827.461C890.668 825.706 887.947 824.024 889.146 821.07C890.721 817.239 892.153 813.73 890.22 809.505C889.414 807.715 891.527 807.16 892.959 806.909C895.232 806.497 897.237 807.178 897.506 809.666C897.828 812.566 897.577 815.52 897.577 818.456C897.667 818.474 897.756 818.474 897.846 818.474Z" fill="#E0AAFE"/>
<path d="M245.429 735.049C250.137 742.443 247.04 747.115 240.005 750.302C237.695 751.34 237.874 754.008 236.084 756.281C233.56 751.806 233.542 747.67 235.332 743.893C237.337 739.65 238.716 734.011 245.554 735.157C245.536 735.157 245.429 735.049 245.429 735.049Z" fill="#E0AAFE"/>
<path d="M151.341 732.776C151.055 734.942 149.891 736.893 151.574 738.809C152.344 739.668 154.564 740.044 153.454 741.637C152.326 743.248 150.411 742.407 148.871 741.798C147.851 741.387 146.938 740.706 145.935 740.241C143.555 739.167 140.565 738.236 141.532 734.888C142.588 731.182 146.526 730.753 149.516 729.786C151.377 729.195 151.377 731.487 151.341 732.776Z" fill="#E0AAFE"/>
</svg>
